<svg width="800" height="450" viewBox="0 0 800 450" fill="none" xmlns="http://www.w3.org/2000/svg">
  <!-- Background gradient -->
  <defs>
    <linearGradient id="bgGrad" x1="0%" y1="0%" x2="100%" y2="100%">
      <stop offset="0%" style="stop-color:#d3d1b6;stop-opacity:1" />
      <stop offset="50%" style="stop-color:#f5f2e8;stop-opacity:1" />
      <stop offset="100%" style="stop-color:#e8e2d0;stop-opacity:1" />
    </linearGradient>
    <linearGradient id="accentGrad" x1="0%" y1="0%" x2="100%" y2="0%">
      <stop offset="0%" style="stop-color:#8b7355;stop-opacity:1" />
      <stop offset="100%" style="stop-color:#a68b5b;stop-opacity:1" />
    </linearGradient>
    <linearGradient id="darkAccent" x1="0%" y1="0%" x2="100%" y2="0%">
      <stop offset="0%" style="stop-color:#5d4e37;stop-opacity:1" />
      <stop offset="100%" style="stop-color:#8b7355;stop-opacity:1" />
    </linearGradient>
  </defs>
  
  <!-- Background -->
  <rect width="800" height="450" fill="url(#bgGrad)"/>
  
  <!-- Fashion items silhouettes -->
  <!-- Dress -->
  <g transform="translate(120, 120)">
    <path d="M30 15 C28 13 32 13 30 15 L28 25 L24 70 L36 70 L32 25 Z" fill="url(#accentGrad)" opacity="0.7"/>
    <circle cx="30" cy="12" r="4" fill="url(#accentGrad)" opacity="0.6"/>
  </g>
  
  <!-- Shoe -->
  <g transform="translate(220, 180)">
    <ellipse cx="20" cy="25" rx="25" ry="10" fill="url(#darkAccent)" opacity="0.6"/>
    <path d="M5 25 Q20 15 45 25 L38 32 L12 32 Z" fill="url(#accentGrad)" opacity="0.8"/>
  </g>
  
  <!-- Bag -->
  <g transform="translate(520, 140)">
    <rect x="8" y="20" width="40" height="35" rx="4" fill="url(#accentGrad)" opacity="0.7"/>
    <path d="M18 20 Q18 12 28 12 Q38 12 38 20" stroke="url(#darkAccent)" stroke-width="3" fill="none" opacity="0.8"/>
    <circle cx="20" cy="30" r="2" fill="url(#darkAccent)" opacity="0.6"/>
    <circle cx="36" cy="30" r="2" fill="url(#darkAccent)" opacity="0.6"/>
  </g>
  
  <!-- Hat -->
  <g transform="translate(600, 80)">
    <ellipse cx="20" cy="28" rx="24" ry="6" fill="url(#darkAccent)" opacity="0.5"/>
    <ellipse cx="20" cy="20" rx="12" ry="12" fill="url(#accentGrad)" opacity="0.7"/>
  </g>
  
  <!-- Shirt/Top -->
  <g transform="translate(80, 200)">
    <path d="M15 10 L25 10 L30 15 L30 35 L10 35 L10 15 Z" fill="url(#accentGrad)" opacity="0.6"/>
    <path d="M10 15 L5 12 L5 20 L10 18" fill="url(#darkAccent)" opacity="0.7"/>
    <path d="M30 15 L35 12 L35 20 L30 18" fill="url(#darkAccent)" opacity="0.7"/>
  </g>
  
  <!-- Jewelry/Accessories -->
  <g transform="translate(650, 200)">
    <circle cx="15" cy="15" r="8" fill="none" stroke="url(#accentGrad)" stroke-width="2" opacity="0.6"/>
    <circle cx="15" cy="15" r="3" fill="url(#darkAccent)" opacity="0.8"/>
  </g>
  
  <!-- Decorative elements -->
  <circle cx="100" cy="80" r="3" fill="#8b7355" opacity="0.3"/>
  <circle cx="700" cy="350" r="4" fill="#a68b5b" opacity="0.4"/>
  <circle cx="150" cy="350" r="2" fill="#8b7355" opacity="0.5"/>
  <rect x="50" y="300" width="5" height="5" fill="#8b7355" opacity="0.4" transform="rotate(45 52.5 302.5)"/>
  <rect x="720" y="120" width="4" height="4" fill="#a68b5b" opacity="0.3" transform="rotate(45 722 122)"/>
  
  <!-- Shopping elements -->
  <g transform="translate(320, 280)">
    <!-- Shopping bag outline -->
    <rect x="0" y="12" width="32" height="28" rx="3" fill="none" stroke="#5d4e37" stroke-width="2" opacity="0.6"/>
    <path d="M8 12 Q8 6 16 6 Q24 6 24 12" stroke="#5d4e37" stroke-width="2" fill="none" opacity="0.6"/>
    <!-- Shopping items inside -->
    <line x1="6" y1="20" x2="26" y2="20" stroke="#8b7355" stroke-width="1" opacity="0.4"/>
    <line x1="6" y1="25" x2="20" y2="25" stroke="#8b7355" stroke-width="1" opacity="0.4"/>
    <line x1="6" y1="30" x2="24" y2="30" stroke="#8b7355" stroke-width="1" opacity="0.4"/>
  </g>
  
  <!-- Main title -->
  <text x="400" y="200" text-anchor="middle" fill="#333333" font-family="serif" font-size="42" font-weight="bold">Tienda Web</text>
  <text x="400" y="235" text-anchor="middle" fill="#5d4e37" font-family="sans-serif" font-size="18" opacity="0.8">Catálogo de Moda</text>
  
  <!-- Decorative line -->
  <line x1="320" y1="250" x2="480" y2="250" stroke="#8b7355" stroke-width="2" opacity="0.4"/>
  
  <!-- Technology tags -->
  <rect x="280" y="320" width="80" height="30" rx="15" fill="rgba(139,115,85,0.2)"/>
  <text x="320" y="340" font-family="Arial, sans-serif" font-size="12" fill="#5d4e37" text-anchor="middle" font-weight="600">HTML5</text>
  
  <rect x="370" y="320" width="80" height="30" rx="15" fill="rgba(139,115,85,0.2)"/>
  <text x="410" y="340" font-family="Arial, sans-serif" font-size="12" fill="#5d4e37" text-anchor="middle" font-weight="600">CSS3</text>
  
  <rect x="460" y="320" width="80" height="30" rx="15" fill="rgba(139,115,85,0.2)"/>
  <text x="500" y="340" font-family="Arial, sans-serif" font-size="12" fill="#5d4e37" text-anchor="middle" font-weight="600">JavaScript</text>
</svg>
